<svg xmlns="http://www.w3.org/2000/svg" width="1200" height="630" viewBox="0 0 1200 630">
  <defs>
    <linearGradient id="g" x1="0" y1="0" x2="1" y2="1">
      <stop offset="0%" stop-color="#60A5FA"/>
      <stop offset="100%" stop-color="#A78BFA"/>
    </linearGradient>
    <filter id="s" x="-50%" y="-50%" width="200%" height="200%">
      <feGaussianBlur stdDeviation="40" result="blur"/>
      <feMerge>
        <feMergeNode in="blur"/>
        <feMergeNode in="SourceGraphic"/>
      </feMerge>
    </filter>
  </defs>
  <rect width="1200" height="630" fill="url(#g)"/>
  <g filter="url(#s)">
    <circle cx="220" cy="140" r="120" fill="rgba(255,255,255,0.08)"/>
    <circle cx="1000" cy="520" r="160" fill="rgba(255,255,255,0.08)"/>
  </g>
  <g fill="#0F172A" opacity="0.08">
    <rect x="150" y="330" width="250" height="8" rx="4"/>
    <rect x="150" y="355" width="300" height="8" rx="4"/>
    <rect x="150" y="380" width="220" height="8" rx="4"/>
  </g>
  <g>
    <rect x="150" y="150" width="80" height="80" rx="18" fill="rgba(255,255,255,0.9)"/>
    <path d="M175 188 h30 M175 205 h30 M213 170 h-40 a6 6 0 0 0 -6 6 v38 a6 6 0 0 0 6 6 h40 a6 6 0 0 0 6 -6 v-38 a6 6 0 0 0 -6 -6 z" stroke="#6366F1" stroke-width="4" fill="none" />
  </g>
  <text x="150" y="280" font-family="Inter, Pretendard, Apple SD Gothic Neo, Noto Sans KR, system-ui, -apple-system, Segoe UI, Roboto, Helvetica, Arial" font-size="64" font-weight="800" fill="#0B1020">Easy Report</text>
  <text x="150" y="320" font-family="Inter, Pretendard, Apple SD Gothic Neo, Noto Sans KR, system-ui, -apple-system, Segoe UI, Roboto, Helvetica, Arial" font-size="24" font-weight="600" fill="#0B1020" opacity="0.9">AI가 도와주는 스마트 보고서 생성기</text>
  <text x="150" y="430" font-family="Inter, Pretendard, Apple SD Gothic Neo, Noto Sans KR, system-ui, -apple-system, Segoe UI, Roboto, Helvetica, Arial" font-size="20" fill="rgba(15,23,42,0.85)">https://easyreport-steel.vercel.app</text>
</svg>